<?xml version="1.0" standalone="no"?>
<!DOCTYPE svg PUBLIC "-//W3C//DTD SVG 20010904//EN"
 "http://www.w3.org/TR/2001/REC-SVG-20010904/DTD/svg10.dtd">
<svg version="1.0" xmlns="http://www.w3.org/2000/svg"
 width="199.000000pt" height="271.000000pt" viewBox="0 0 199.000000 271.000000"
 preserveAspectRatio="xMidYMid meet">

<g transform="translate(0.000000,271.000000) scale(0.100000,-0.100000)"
fill="#000000" stroke="none">
<path d="M945 2616 c-22 -12 -71 -40 -110 -61 -38 -20 -74 -41 -80 -45 -5 -4
-41 -25 -80 -45 -117 -64 -146 -80 -245 -135 -52 -30 -120 -67 -150 -83 -30
-17 -73 -40 -95 -52 -22 -12 -66 -36 -98 -54 l-57 -33 0 -187 c0 -175 1 -188
20 -204 11 -9 23 -17 26 -17 11 0 129 -73 132 -82 2 -4 9 -8 16 -8 7 0 35 -16
62 -35 27 -19 55 -35 61 -35 7 0 13 -4 13 -9 0 -5 8 -11 18 -15 9 -3 31 -15
47 -26 17 -11 41 -25 55 -32 14 -7 27 -15 30 -19 3 -3 12 -9 20 -12 8 -4 29
-16 45 -27 17 -11 41 -25 55 -32 14 -7 27 -15 30 -19 3 -3 12 -9 20 -12 8 -4
29 -16 45 -27 17 -11 41 -25 55 -32 14 -7 27 -15 30 -19 3 -3 12 -9 20 -13 17
-8 35 -19 95 -57 22 -14 47 -29 55 -33 17 -8 35 -19 95 -57 22 -14 47 -29 55
-33 17 -8 35 -19 95 -57 22 -14 47 -29 55 -32 8 -4 27 -15 42 -25 15 -9 92
-57 172 -105 147 -88 156 -98 140 -141 -3 -9 -10 -16 -14 -16 -5 0 -41 -19
-82 -43 -40 -24 -93 -53 -118 -66 -25 -12 -61 -32 -80 -43 -64 -38 -210 -118
-215 -118 -2 0 -38 -20 -78 -45 -41 -25 -79 -45 -85 -45 -11 0 -64 27 -114 58
-30 19 -383 232 -409 247 -10 6 -47 28 -83 50 l-66 39 0 187 0 187 28 6 c15 3
57 11 95 18 37 7 66 17 64 22 -3 10 -434 275 -448 276 -3 0 -9 -190 -12 -422
l-6 -423 27 -22 c15 -13 31 -23 36 -23 12 0 130 -72 134 -82 2 -4 8 -8 14 -8
13 0 132 -71 136 -82 2 -4 8 -8 14 -8 5 0 63 -33 129 -73 66 -39 128 -76 139
-82 11 -5 20 -13 20 -17 0 -5 6 -8 13 -8 7 0 36 -16 66 -35 29 -19 57 -35 62
-35 5 0 9 -4 9 -10 0 -5 6 -10 13 -10 7 0 36 -16 66 -35 29 -19 56 -35 60 -35
4 0 57 27 117 61 141 79 296 164 374 205 19 11 37 21 40 24 3 3 21 13 40 24
19 10 62 33 95 51 33 18 76 41 95 51 19 11 37 21 40 24 7 7 88 51 126 68 l31
15 6 191 c3 118 2 195 -4 202 -6 7 -24 20 -42 29 -18 9 -45 25 -62 35 -16 11
-41 25 -55 32 -14 7 -27 15 -30 19 -3 3 -12 9 -20 13 -17 8 -38 21 -96 58 -23
14 -56 35 -75 45 -19 10 -52 31 -75 45 -23 14 -56 35 -75 45 -19 10 -52 30
-74 44 -22 14 -47 29 -55 33 -17 8 -35 19 -95 57 -22 14 -47 29 -55 32 -8 4
-27 15 -42 25 -15 9 -109 67 -210 127 -100 61 -191 120 -202 133 -11 12 -28
22 -37 22 -10 0 -80 37 -156 83 -125 76 -138 86 -141 114 -3 28 2 34 50 61 85
48 129 72 198 110 36 19 70 38 75 42 6 4 42 24 80 45 39 21 97 54 130 72 142
79 139 78 177 59 38 -20 58 -32 113 -67 22 -14 47 -29 55 -33 8 -4 24 -12 35
-19 11 -7 38 -24 60 -37 23 -14 50 -31 60 -38 11 -6 31 -18 45 -24 14 -7 27
-15 30 -19 3 -3 25 -17 50 -31 25 -14 71 -41 102 -61 31 -21 61 -37 67 -37 16
0 18 -20 13 -205 -3 -116 -9 -183 -16 -187 -6 -4 -36 -10 -66 -14 -30 -4 -67
-12 -83 -19 -27 -11 -24 -14 192 -143 195 -117 235 -139 243 -129 1 1 5 190 8
419 l5 418 -32 17 c-18 10 -33 21 -33 25 0 5 -6 8 -13 8 -8 0 -36 16 -63 35
-27 19 -52 35 -56 35 -11 0 -163 93 -166 102 -2 4 -8 8 -14 8 -13 0 -132 71
-136 82 -2 4 -9 8 -16 8 -6 0 -35 16 -65 35 -29 19 -57 35 -62 35 -5 0 -9 5
-9 10 0 6 -6 10 -13 10 -7 0 -36 16 -64 35 -29 19 -57 35 -63 35 -5 0 -10 5
-10 10 0 6 -6 10 -12 10 -7 0 -33 14 -58 30 -53 35 -53 35 -105 6z"/>
</g>
</svg>
